<svg width="24" height="24" xmlns="http://www.w3.org/2000/svg" xmlns:xlink="http://www.w3.org/1999/xlink"><defs><filter x="-1.6%" y="-.7%" width="103.1%" height="101.8%" filterUnits="objectBoundingBox" id="a"><feOffset dy="1" in="SourceAlpha" result="shadowOffsetOuter1"/><feGaussianBlur stdDeviation="1.5" in="shadowOffsetOuter1" result="shadowBlurOuter1"/><feColorMatrix values="0 0 0 0 0 0 0 0 0 0 0 0 0 0 0 0 0 0 0.449792395 0" in="shadowBlurOuter1"/></filter><rect id="b" x="200" y="0" width="320" height="568" rx="5"/></defs><g fill="none" fill-rule="evenodd"><g transform="translate(-387 -428)"><use fill="#000" filter="url(#a)" xlink:href="#b"/><use fill="#FFF" xlink:href="#b"/></g><path d="M22.286 9.429H14.57V1.714C14.571.768 13.804 0 12.857 0h-1.714c-.947 0-1.714.768-1.714 1.714V9.43H1.714C.768 9.429 0 10.196 0 11.143v1.714c0 .947.768 1.714 1.714 1.714H9.43v7.715c0 .946.767 1.714 1.714 1.714h1.714c.947 0 1.714-.768 1.714-1.714V14.57h7.715c.946 0 1.714-.767 1.714-1.714v-1.714c0-.947-.768-1.714-1.714-1.714z" fill="#888" fill-rule="nonzero"/></g></svg>