<svg width="24" height="24" xmlns="http://www.w3.org/2000/svg"><defs><filter id="a"><feColorMatrix in="SourceGraphic" values="0 0 0 0 0.533333 0 0 0 0 0.533333 0 0 0 0 0.533333 0 0 0 1.000000 0"/></filter></defs><g transform="translate(-278 -11)" filter="url(#a)" fill="none" fill-rule="evenodd"><path d="M301.674 31.75L297 27.077a1.124 1.124 0 00-.797-.329h-.764a9.7 9.7 0 002.062-5.999c0-5.385-4.364-9.749-9.75-9.749-5.387 0-9.751 4.364-9.751 9.749 0 5.385 4.364 9.75 9.75 9.75a9.704 9.704 0 006.001-2.063v.764c0 .3.117.586.328.797l4.674 4.673c.44.44 1.153.44 1.59 0l1.326-1.327c.44-.44.44-1.153.005-1.593zm-13.923-5.002c-3.315 0-6-2.68-6-5.999 0-3.314 2.68-6 6-6 3.314 0 6 2.682 6 6 0 3.314-2.681 6-6 6z" fill="#000" fill-rule="nonzero"/></g></svg>